<?xml version="1.0" encoding="iso-8859-1"?>
<!-- Generator: Adobe Illustrator 19.0.0, SVG Export Plug-In . SVG Version: 6.00 Build 0)  -->
<svg version="1.1" id="Layer_1" xmlns="http://www.w3.org/2000/svg" xmlns:xlink="http://www.w3.org/1999/xlink" x="0px" y="0px"
	 viewBox="0 0 352.4 352.4" style="enable-background:new 0 0 352.4 352.4;" xml:space="preserve">
<g id="XMLID_957_">
	<g id="XMLID_963_">
		<g id="XMLID_51_">
			<path id="XMLID_52_" style="fill:#9FCBA5;" d="M204.986,0h-57.572c-7.945,0-15.371,3.949-19.813,10.538L62.779,106.69
				c-3.462,5.135-5.311,11.186-5.311,17.379v195.865c0,17.93,14.535,32.466,32.466,32.466h172.532
				c17.93,0,32.466-14.535,32.466-32.466V124.068c0-6.193-1.849-12.244-5.311-17.379l-64.822-96.152
				C220.357,3.949,212.931,0,204.986,0z M176.199,95.548c-18.006,0-32.602-14.596-32.602-32.602s14.596-32.602,32.602-32.602
				s32.602,14.596,32.602,32.602S194.205,95.548,176.199,95.548z"/>
		</g>
	</g>
	<g id="XMLID_966_">
		<path id="XMLID_967_" style="fill:#2B7B57;" d="M240.885,265.26h-66.123l-0.239,46.849h52.363c8.76,0,16.851-4.686,21.21-12.285
			l6.471-11.279l-0.439-0.25L240.885,265.26z"/>
		<path id="XMLID_970_" style="fill:#2B7B57;" d="M144.626,207.932l-40.5-23.551l-26.124,45.445
			c-4.35,7.566-4.337,16.878,0.034,24.432l6.366,11.003h27.277L144.626,207.932z"/>
		<path id="XMLID_973_" style="fill:#2B7B57;" d="M176.276,152.869c0.004,0,32.817,57.089,32.817,57.089l40.742-23.143l-26.1-45.406
			c-4.362-7.588-12.447-12.267-21.2-12.267h-12.879v0.449L176.276,152.869z"/>
		<path id="XMLID_976_" style="fill:#49B86E;" d="M159.882,252.513h-0.242c-2.846,0-5.153,2.307-5.153,5.153v7.593h-70.08
			l20.043,34.642c4.371,7.555,12.437,12.207,21.166,12.207h28.871v7.589c0,2.846,2.307,5.153,5.153,5.153h0.006
			c1.367,0,2.678-0.543,3.644-1.509l31.134-31.134c2.013-2.013,2.012-5.276-0.001-7.289l-19.665-19.66l-11.231-11.236
			C162.56,253.057,161.249,252.513,159.882,252.513z"/>
		<path id="XMLID_979_" style="fill:#49B86E;" d="M163.093,201.383l0.118-0.206c1.418-2.468,0.567-5.618-1.901-7.036l-6.584-3.783
			l21.548-37.488l13.38-23.279v-0.447H149.79c-8.813,0-16.945,4.743-21.284,12.413l-14.396,25.45l-6.582-3.782
			c-2.467-1.418-5.616-0.567-7.035,1.899l-0.003,0.005c-0.682,1.185-0.864,2.592-0.508,3.912l4.142,15.339l7.332,27.165
			c0.742,2.748,3.57,4.374,6.318,3.632l42.192-11.388C161.288,203.434,162.412,202.568,163.093,201.383z"/>
		<path id="XMLID_982_" style="fill:#49B86E;" d="M259.815,204.187l6.585-3.785c2.468-1.419,3.318-4.571,1.898-7.038l0,0
			c-0.681-1.184-1.805-2.049-3.123-2.405l-42.513-11.48c-2.748-0.742-5.577,0.884-6.319,3.632l-11.388,42.185
			c-0.356,1.319-0.174,2.726,0.507,3.911l0.12,0.208c1.418,2.467,4.568,3.318,7.035,1.9l6.581-3.781l21.686,37.726l13.242,23.035
			l0.439,0.25l19.855-34.615c4.326-7.543,4.322-16.815-0.012-24.354L259.815,204.187z"/>
	</g>
</g>
<g>
</g>
<g>
</g>
<g>
</g>
<g>
</g>
<g>
</g>
<g>
</g>
<g>
</g>
<g>
</g>
<g>
</g>
<g>
</g>
<g>
</g>
<g>
</g>
<g>
</g>
<g>
</g>
<g>
</g>
</svg>
