<?xml version="1.0" encoding="iso-8859-1"?>
<!-- Generator: Adobe Illustrator 15.0.0, SVG Export Plug-In . SVG Version: 6.00 Build 0)  -->
<!DOCTYPE svg PUBLIC "-//W3C//DTD SVG 1.1//EN" "http://www.w3.org/Graphics/SVG/1.1/DTD/svg11.dtd">
<svg xmlns="http://www.w3.org/2000/svg" xmlns:xlink="http://www.w3.org/1999/xlink" version="1.1" id="Layer_1" x="0px" y="0px" width="512" height="512" viewBox="0 0 128 128" style="enable-background:new 0 0 128 128;" xml:space="preserve">
<g>
	<circle style="fill:#88C5CC;" cx="64" cy="64" r="64"/>
	<g>
		<g>
			<rect x="23" y="25" style="fill:#FFD464;" width="24" height="24"/>
			
				<rect x="23.002" y="25.002" transform="matrix(0.7071 0.7071 -0.7071 0.7071 36.4156 -13.9129)" style="fill:#FFD464;" width="24.001" height="24"/>
		</g>
		<circle style="fill:#FFEAB3;" cx="35" cy="37" r="14"/>
		<path style="fill:#FFF8E6;" d="M35,47c-5.514,0-10-4.486-10-10s4.486-10,10-10s10,4.486,10,10S40.514,47,35,47z"/>
	</g>
	<path style="fill:#4AB8A1;" d="M18.502,109C30.104,120.729,46.2,128,64,128s33.896-7.271,45.498-19H18.502z"/>
	<g>
		<rect x="35" y="78" style="fill:#E6E6E6;" width="6" height="31"/>
		<polygon style="fill:#CCCCCC;" points="41,81.364 41,78 35,78 35,87.364   "/>
		<path style="fill:#263740;" d="M54.143,61.151c0.39,0.389,0.39,1.025,0,1.414L25.859,90.85c-0.389,0.389-1.025,0.389-1.416,0    l-1.414-1.414c-0.389-0.39-0.389-1.025,0-1.414l28.285-28.286c0.39-0.389,1.024-0.389,1.414,0L54.143,61.151z"/>
		<path style="fill:#E6E6E6;" d="M56.971,61.151c0.389,0.389,0.389,1.025,0,1.414L25.859,93.678c-0.389,0.389-1.025,0.389-1.416,0    l-1.414-1.414c-0.389-0.39-0.389-1.025,0-1.414l31.113-31.114c0.39-0.389,1.025-0.389,1.414,0L56.971,61.151z"/>
		<path style="fill:#E6E6E6;" d="M43,109v-4c0-1.1-0.9-2-2-2h-6c-1.1,0-2,0.9-2,2v4H43z"/>
		<path style="fill:#CCCCCC;" d="M41,103h-2c1.1,0,2,0.9,2,2v4h2v-4C43,103.9,42.1,103,41,103z"/>
		<rect x="35" y="101" style="fill:#CCCCCC;" width="6" height="2"/>
	</g>
	<g>
		<rect x="68" y="78" style="fill:#E6E6E6;" width="6" height="31"/>
		<polygon style="fill:#CCCCCC;" points="74,81.364 74,78 68,78 68,87.364   "/>
		<path style="fill:#263740;" d="M87.143,61.151c0.39,0.389,0.39,1.025,0,1.414L58.859,90.85c-0.389,0.389-1.025,0.389-1.416,0    l-1.414-1.414c-0.389-0.39-0.389-1.025,0-1.414l28.285-28.286c0.39-0.389,1.024-0.389,1.414,0L87.143,61.151z"/>
		<path style="fill:#E6E6E6;" d="M89.971,61.151c0.389,0.389,0.389,1.025,0,1.414L58.859,93.678c-0.389,0.389-1.025,0.389-1.416,0    l-1.414-1.414c-0.389-0.39-0.389-1.025,0-1.414l31.113-31.114c0.39-0.389,1.025-0.389,1.414,0L89.971,61.151z"/>
		<path style="fill:#E6E6E6;" d="M76,109v-4c0-1.1-0.9-2-2-2h-6c-1.1,0-2,0.9-2,2v4H76z"/>
		<path style="fill:#CCCCCC;" d="M74,103h-2c1.1,0,2,0.9,2,2v4h2v-4C76,103.9,75.1,103,74,103z"/>
		<rect x="68" y="101" style="fill:#CCCCCC;" width="6" height="2"/>
	</g>
	<g>
		<rect x="101" y="78" style="fill:#E6E6E6;" width="6" height="31"/>
		<polygon style="fill:#CCCCCC;" points="107,81.364 107,78 101,78 101,87.364   "/>
		<path style="fill:#263740;" d="M120.143,61.151c0.39,0.389,0.39,1.025,0,1.414L91.859,90.85c-0.389,0.389-1.025,0.389-1.416,0    l-1.414-1.414c-0.389-0.39-0.389-1.025,0-1.414l28.285-28.286c0.39-0.389,1.024-0.389,1.414,0L120.143,61.151z"/>
		<path style="fill:#E6E6E6;" d="M122.971,61.151c0.389,0.389,0.389,1.025,0,1.414L91.859,93.678c-0.389,0.389-1.025,0.389-1.416,0    l-1.414-1.414c-0.389-0.39-0.389-1.025,0-1.414l31.113-31.114c0.39-0.389,1.025-0.389,1.414,0L122.971,61.151z"/>
		<path style="fill:#E6E6E6;" d="M109,109v-4c0-1.1-0.9-2-2-2h-6c-1.1,0-2,0.9-2,2v4H109z"/>
		<path style="fill:#CCCCCC;" d="M107,103h-2c1.1,0,2,0.9,2,2v4h2v-4C109,103.9,108.1,103,107,103z"/>
		<rect x="101" y="101" style="fill:#CCCCCC;" width="6" height="2"/>
	</g>
</g>
</svg>
